<svg width="28" height="30" viewBox="0 0 28 30" fill="none" xmlns="http://www.w3.org/2000/svg">
<path d="M2.33109 3.74991H9.32435C10.5608 3.74991 11.7467 4.27669 12.621 5.21437C13.4953 6.15205 13.9865 7.42382 13.9865 8.7499V26.2499C13.9865 25.2553 13.6181 24.3015 12.9624 23.5982C12.3066 22.895 11.4173 22.4999 10.4899 22.4999H2.33109V3.74991Z" stroke="white" stroke-width="2" stroke-linecap="round" stroke-linejoin="round"/>
<path d="M25.642 3.74991H18.6487C17.4122 3.74991 16.2264 4.27669 15.352 5.21437C14.4777 6.15205 13.9865 7.42382 13.9865 8.7499V26.2499C13.9865 25.2553 14.3549 24.3015 15.0107 23.5982C15.6664 22.895 16.5558 22.4999 17.4832 22.4999H25.642V3.74991Z" stroke="white" stroke-width="2" stroke-linecap="round" stroke-linejoin="round"/>
</svg>
