<svg width="30" height="30" viewBox="0 0 30 30" fill="none" xmlns="http://www.w3.org/2000/svg">
<g clip-path="url(#clip0_654_303)">
<path d="M21.206 19.2255L20.337 20.337L19.2255 21.206C17.2847 22.7235 14.8447 23.625 12.1875 23.625C5.86929 23.625 0.75 18.5057 0.75 12.1875C0.75 5.86929 5.86929 0.75 12.1875 0.75C18.5057 0.75 23.625 5.86929 23.625 12.1875C23.625 14.8447 22.7235 17.2847 21.206 19.2255ZM20.4375 21.7969V20.4375H21.7969H22.752C22.9308 20.4375 23.0966 20.5069 23.2177 20.628L29.0567 26.4669C29.0571 26.4673 29.0575 26.4677 29.0578 26.4681C29.312 26.7263 29.3116 27.1433 29.0537 27.4013L27.3954 29.0595L27.3926 29.0624C27.1428 29.3149 26.7292 29.319 26.4698 29.0595L20.628 23.2177C20.5069 23.0966 20.4375 22.9308 20.4375 22.752V21.7969ZM3.9375 12.1875C3.9375 16.7505 7.63109 20.4375 12.1875 20.4375C16.7505 20.4375 20.4375 16.7439 20.4375 12.1875C20.4375 7.62447 16.7439 3.9375 12.1875 3.9375C7.62447 3.9375 3.9375 7.63109 3.9375 12.1875Z" stroke="black" stroke-opacity="0.37" stroke-width="1.5"/>
</g>
<defs>
<clipPath id="clip0_654_303">
<rect width="30" height="30" fill="white"/>
</clipPath>
</defs>
</svg>
