<svg width="31" height="31" viewBox="0 0 31 31" fill="none" xmlns="http://www.w3.org/2000/svg">
<path d="M20.5528 21.6444L20.8882 20.9736L20.5528 21.6444ZM21.4472 19.8556L21.1118 20.5264L21.1118 20.5264L21.4472 19.8556ZM16.5 17.382H15.75C15.75 17.666 15.9105 17.9257 16.1646 18.0528L16.5 17.382ZM15.5 2C8.04416 2 2 8.04416 2 15.5H3.5C3.5 8.87258 8.87258 3.5 15.5 3.5V2ZM29 15.5C29 8.04416 22.9558 2 15.5 2V3.5C22.1274 3.5 27.5 8.87258 27.5 15.5H29ZM15.5 29C22.9558 29 29 22.9558 29 15.5H27.5C27.5 22.1274 22.1274 27.5 15.5 27.5V29ZM2 15.5C2 22.9558 8.04416 29 15.5 29V27.5C8.87258 27.5 3.5 22.1274 3.5 15.5H2ZM1.5 15.5C1.5 7.76801 7.76801 1.5 15.5 1.5V0C6.93959 0 0 6.93959 0 15.5H1.5ZM15.5 29.5C7.76801 29.5 1.5 23.232 1.5 15.5H0C0 24.0604 6.93959 31 15.5 31V29.5ZM29.5 15.5C29.5 23.232 23.232 29.5 15.5 29.5V31C24.0604 31 31 24.0604 31 15.5H29.5ZM15.5 1.5C23.232 1.5 29.5 7.76801 29.5 15.5H31C31 6.93959 24.0604 0 15.5 0V1.5ZM15.5 9.5C15.6381 9.5 15.75 9.61193 15.75 9.75H17.25C17.25 8.7835 16.4665 8 15.5 8V9.5ZM15.25 9.75C15.25 9.61193 15.3619 9.5 15.5 9.5V8C14.5335 8 13.75 8.7835 13.75 9.75H15.25ZM15.25 18V9.75H13.75V18H15.25ZM15.3882 18.2236C15.3035 18.1813 15.25 18.0947 15.25 18H13.75C13.75 18.6629 14.1245 19.2688 14.7174 19.5652L15.3882 18.2236ZM20.8882 20.9736L15.3882 18.2236L14.7174 19.5652L20.2174 22.3152L20.8882 20.9736ZM21.2236 20.8618C21.1619 20.9853 21.0117 21.0354 20.8882 20.9736L20.2174 22.3152C21.0818 22.7475 22.133 22.3971 22.5652 21.5326L21.2236 20.8618ZM21.1118 20.5264C21.2353 20.5881 21.2854 20.7383 21.2236 20.8618L22.5652 21.5326C22.9975 20.6682 22.6471 19.617 21.7826 19.1848L21.1118 20.5264ZM16.1646 18.0528L21.1118 20.5264L21.7826 19.1848L16.8354 16.7111L16.1646 18.0528ZM15.75 9.75V17.382H17.25V9.75H15.75Z" fill="black" fill-opacity="0.37"/>
</svg>
