<svg width="20" height="20" viewBox="0 0 20 20" fill="none" xmlns="http://www.w3.org/2000/svg">
<g clip-path="url(#clip0_654_81)">
<path d="M11.7667 11.3855C11.5378 11.6231 11.2618 11.8138 10.9552 11.946C10.6485 12.0782 10.3175 12.1493 9.98178 12.155C9.64611 12.1607 9.31268 12.101 9.00138 11.9793C8.69009 11.8577 8.40731 11.6766 8.16991 11.4469C7.93252 11.2172 7.74537 10.9436 7.61963 10.6424C7.4939 10.3411 7.43215 10.0185 7.43807 9.69371C7.44399 9.36891 7.51746 9.04859 7.6541 8.75186C7.79074 8.45513 7.98775 8.18807 8.23337 7.96662M14.95 14.4657C13.5255 15.5163 11.791 16.0984 10 16.1267C4.16671 16.1267 0.833374 9.67605 0.833374 9.67605C1.86995 7.80688 3.30765 6.17381 5.05004 4.88641L14.95 14.4657ZM8.25004 3.41888C8.82365 3.28897 9.41093 3.22402 10 3.22536C15.8334 3.22536 19.1667 9.67605 19.1667 9.67605C18.6609 10.5917 18.0576 11.4538 17.3667 12.2483L8.25004 3.41888Z" stroke="black" stroke-opacity="0.45" stroke-width="2" stroke-linecap="round" stroke-linejoin="round"/>
<path d="M0.833374 0.806396L19.1667 18.5458" stroke="black" stroke-opacity="0.45" stroke-width="2" stroke-linecap="round" stroke-linejoin="round"/>
</g>
<defs>
<clipPath id="clip0_654_81">
<rect width="20" height="19.3521" fill="white"/>
</clipPath>
</defs>
</svg>
