<svg width="30" height="30" viewBox="0 0 30 30" fill="none" xmlns="http://www.w3.org/2000/svg">
<g clip-path="url(#clip0_654_304)">
<path d="M14.6027 9.38854L5.00005 17.2974V25.8333C5.00005 26.0543 5.08785 26.2663 5.24413 26.4226C5.40041 26.5789 5.61237 26.6667 5.83338 26.6667L11.6698 26.6516C11.8901 26.6505 12.101 26.5622 12.2564 26.406C12.4118 26.2499 12.499 26.0385 12.499 25.8182V20.8333C12.499 20.6123 12.5868 20.4004 12.7431 20.2441C12.8994 20.0878 13.1113 20 13.3323 20H16.6657C16.8867 20 17.0986 20.0878 17.2549 20.2441C17.4112 20.4004 17.499 20.6123 17.499 20.8333V25.8146C17.4987 25.9242 17.52 26.0329 17.5617 26.1343C17.6034 26.2357 17.6647 26.3279 17.7422 26.4055C17.8196 26.4832 17.9116 26.5448 18.0128 26.5868C18.1141 26.6289 18.2227 26.6505 18.3323 26.6505L24.1667 26.6667C24.3877 26.6667 24.5997 26.5789 24.756 26.4226C24.9123 26.2663 25 26.0543 25 25.8333V17.2917L15.3995 9.38854C15.2867 9.29756 15.1461 9.24795 15.0011 9.24795C14.8561 9.24795 14.7155 9.29756 14.6027 9.38854ZM29.7709 14.7641L25.4167 11.175V3.96094C25.4167 3.79518 25.3509 3.63621 25.2337 3.519C25.1164 3.40179 24.9575 3.33594 24.7917 3.33594H21.875C21.7093 3.33594 21.5503 3.40179 21.4331 3.519C21.3159 3.63621 21.25 3.79518 21.25 3.96094V7.74271L16.587 3.90625C16.1395 3.53801 15.578 3.33667 14.9985 3.33667C14.419 3.33667 13.8574 3.53801 13.4099 3.90625L0.22609 14.7641C0.162802 14.8164 0.110441 14.8806 0.0719998 14.9532C0.0335581 15.0257 0.00978881 15.1052 0.00204995 15.1869C-0.00568891 15.2686 0.00275438 15.3511 0.0268974 15.4296C0.0510404 15.5081 0.0904099 15.581 0.142756 15.6443L1.47088 17.2589C1.52309 17.3223 1.5873 17.3749 1.65984 17.4135C1.73238 17.4521 1.81183 17.4761 1.89364 17.484C1.97544 17.4919 2.058 17.4835 2.13659 17.4595C2.21518 17.4354 2.28824 17.3961 2.35161 17.3438L14.6027 7.25313C14.7155 7.16215 14.8561 7.11254 15.0011 7.11254C15.1461 7.11254 15.2867 7.16215 15.3995 7.25313L27.6511 17.3438C27.7143 17.3961 27.7873 17.4355 27.8658 17.4596C27.9443 17.4838 28.0267 17.4922 28.1085 17.4845C28.1902 17.4767 28.2696 17.4529 28.3422 17.4145C28.4147 17.3761 28.479 17.3237 28.5313 17.2604L29.8594 15.6458C29.9117 15.5822 29.9509 15.5089 29.9748 15.4301C29.9986 15.3512 30.0067 15.2685 29.9985 15.1865C29.9902 15.1046 29.9659 15.0251 29.9268 14.9526C29.8878 14.8801 29.8348 14.816 29.7709 14.7641Z" fill="black"/>
</g>
<defs>
<clipPath id="clip0_654_304">
<rect width="30" height="30" fill="white"/>
</clipPath>
</defs>
</svg>
