<svg width="7" height="7" viewBox="0 0 7 7" fill="none" xmlns="http://www.w3.org/2000/svg">
<g clip-path="url(#clip0_654_220)">
<path d="M5.43259 1.45828L1.42966 5.5416" stroke="white" stroke-width="2" stroke-linecap="round" stroke-linejoin="round"/>
<path d="M1.85848 2.62493C2.25326 2.62493 2.57329 2.29847 2.57329 1.89576C2.57329 1.49306 2.25326 1.1666 1.85848 1.1666C1.46371 1.1666 1.14367 1.49306 1.14367 1.89576C1.14367 2.29847 1.46371 2.62493 1.85848 2.62493Z" stroke="white" stroke-width="2" stroke-linecap="round" stroke-linejoin="round"/>
<path d="M5.00365 5.83331C5.39843 5.83331 5.71846 5.50685 5.71846 5.10415C5.71846 4.70144 5.39843 4.37498 5.00365 4.37498C4.60887 4.37498 4.28884 4.70144 4.28884 5.10415C4.28884 5.50685 4.60887 5.83331 5.00365 5.83331Z" stroke="white" stroke-width="2" stroke-linecap="round" stroke-linejoin="round"/>
</g>
<defs>
<clipPath id="clip0_654_220">
<rect width="6.32092" height="6.44785" fill="white" transform="scale(1.08563)"/>
</clipPath>
</defs>
</svg>
