<svg width="17" height="17" viewBox="0 0 17 17" fill="none" xmlns="http://www.w3.org/2000/svg">
<path d="M16 8.08333C16.0028 9.18321 15.7459 10.2682 15.25 11.25C14.662 12.4264 13.7581 13.416 12.6395 14.1077C11.5209 14.7995 10.2319 15.1661 8.91666 15.1666C7.81678 15.1695 6.73177 14.9125 5.75001 14.4166L1.00003 16L2.58335 11.25C2.08747 10.2682 1.83049 9.18321 1.83336 8.08333C1.83387 6.76813 2.20053 5.47905 2.89229 4.36047C3.58404 3.24189 4.57356 2.33799 5.75001 1.75002C6.73177 1.25413 7.81678 0.997152 8.91666 1.00002H9.33333C11.0703 1.09585 12.7109 1.82898 13.9409 3.05906C15.171 4.28914 15.9041 5.92971 16 7.66666V8.08333Z" stroke="white" stroke-width="2" stroke-linecap="round" stroke-linejoin="round"/>
</svg>
