<svg width="25" height="25" viewBox="0 0 25 25" fill="none" xmlns="http://www.w3.org/2000/svg">
<path d="M15.6771 5.20829C16.6945 5.4068 17.6296 5.90439 18.3626 6.63739C19.0956 7.37039 19.5932 8.30544 19.7917 9.32288L15.6771 5.20829ZM15.6771 1.04163C17.7909 1.27646 19.7621 2.22306 21.2669 3.72601C22.7718 5.22896 23.7208 7.19893 23.9583 9.31246L15.6771 1.04163ZM22.9167 17.625V20.75C22.9178 21.0401 22.8584 21.3272 22.7422 21.593C22.626 21.8588 22.4555 22.0974 22.2417 22.2936C22.028 22.4897 21.7756 22.639 21.5008 22.7319C21.226 22.8249 20.9348 22.8594 20.6458 22.8333C17.4405 22.485 14.3615 21.3897 11.6563 19.6354C9.1394 18.0361 7.00556 15.9022 5.40625 13.3854C3.64581 10.6679 2.55025 7.57391 2.20833 4.35413C2.1823 4.06607 2.21654 3.77575 2.30885 3.50165C2.40117 3.22755 2.54955 2.97568 2.74455 2.76206C2.93954 2.54845 3.17688 2.37778 3.44145 2.26092C3.70602 2.14406 3.99202 2.08357 4.28125 2.08329H7.40625C7.91178 2.07832 8.40187 2.25733 8.78517 2.58697C9.16847 2.91661 9.41883 3.37438 9.48958 3.87496C9.62148 4.87503 9.86609 5.85697 10.2188 6.80204C10.3589 7.17488 10.3892 7.58008 10.3062 7.96963C10.2231 8.35917 10.0301 8.71674 9.75 8.99996L8.42708 10.3229C9.90995 12.9307 12.0692 15.09 14.6771 16.5729L16 15.25C16.2832 14.9699 16.6408 14.7769 17.0303 14.6938C17.4199 14.6107 17.8251 14.6411 18.1979 14.7812C19.143 15.1339 20.1249 15.3785 21.125 15.5104C21.631 15.5818 22.0931 15.8366 22.4235 16.2265C22.7538 16.6164 22.9293 17.1141 22.9167 17.625Z" stroke="#167520" stroke-width="2" stroke-linecap="round" stroke-linejoin="round"/>
</svg>
