<svg width="28" height="30" viewBox="0 0 28 30" fill="none" xmlns="http://www.w3.org/2000/svg">
<path d="M13.9865 27.4999C20.4236 27.4999 25.642 21.9035 25.642 14.9999C25.642 8.09637 20.4236 2.49994 13.9865 2.49994C7.5494 2.49994 2.33109 8.09637 2.33109 14.9999C2.33109 21.9035 7.5494 27.4999 13.9865 27.4999Z" stroke="white" stroke-width="2" stroke-linecap="round" stroke-linejoin="round"/>
<path d="M10.5948 11.25C10.8688 10.4145 11.4097 9.71009 12.1216 9.26138C12.8335 8.81266 13.6705 8.64863 14.4844 8.79835C15.2983 8.94807 16.0365 9.40187 16.5683 10.0794C17.1001 10.7569 17.3911 11.6144 17.3899 12.5C17.3899 14.9999 13.8933 16.2499 13.8933 16.2499" stroke="white" stroke-width="2" stroke-linecap="round" stroke-linejoin="round"/>
<path d="M13.9865 21.25H13.9976" stroke="white" stroke-width="2" stroke-linecap="round" stroke-linejoin="round"/>
</svg>
