<svg width="24" height="27" viewBox="0 0 24 27" fill="none" xmlns="http://www.w3.org/2000/svg">
<path d="M17.1114 14.3863V16.8417C17.1123 17.0697 17.0692 17.2953 16.9851 17.5041C16.9009 17.713 16.7775 17.9005 16.6228 18.0546C16.468 18.2087 16.2852 18.326 16.0863 18.399C15.8873 18.4721 15.6765 18.4992 15.4673 18.4787C13.1465 18.205 10.9172 17.3444 8.95856 15.966C7.13629 14.7093 5.59132 13.0327 4.43338 11.0551C3.15877 8.91989 2.36556 6.48886 2.118 3.95897C2.09915 3.73263 2.12394 3.50452 2.19078 3.28915C2.25762 3.07378 2.36505 2.87588 2.50623 2.70803C2.64742 2.54019 2.81925 2.40609 3.01081 2.31427C3.20236 2.22245 3.40944 2.17491 3.61885 2.1747H5.88144C6.24745 2.17079 6.60229 2.31145 6.87981 2.57046C7.15733 2.82947 7.3386 3.18915 7.38983 3.58247C7.48533 4.36826 7.66243 5.1398 7.91777 5.88238C8.01924 6.17533 8.0412 6.49371 7.98105 6.79979C7.9209 7.10587 7.78115 7.38682 7.57838 7.60935L6.62055 8.64881C7.69419 10.6979 9.25756 12.3945 11.1457 13.5596L12.1036 12.5202C12.3086 12.3001 12.5675 12.1485 12.8495 12.0832C13.1316 12.0179 13.425 12.0418 13.6949 12.1519C14.3792 12.429 15.0901 12.6212 15.8142 12.7248C16.1806 12.7809 16.5151 12.9812 16.7543 13.2875C16.9935 13.5938 17.1206 13.9849 17.1114 14.3863Z" stroke="black" stroke-width="2" stroke-linecap="round" stroke-linejoin="round"/>
</svg>
