<svg width="30" height="30" viewBox="0 0 30 30" fill="none" xmlns="http://www.w3.org/2000/svg">
<g clip-path="url(#clip0_654_2408)">
<path d="M17.9989 25.8162V25.8146V20.8333C17.9989 20.4797 17.8585 20.1406 17.6084 19.8905C17.3584 19.6405 17.0192 19.5 16.6656 19.5H13.3323C12.9787 19.5 12.6395 19.6405 12.3895 19.8905C12.1394 20.1406 11.9989 20.4797 11.9989 20.8333V25.8182C11.9989 25.9064 11.9641 25.9909 11.9019 26.0534C11.8398 26.1158 11.7556 26.1511 11.6675 26.1516C11.6674 26.1516 11.6674 26.1516 11.6673 26.1516L5.83332 26.1667C5.83317 26.1667 5.83302 26.1667 5.83288 26.1667C5.74463 26.1665 5.66002 26.1314 5.59762 26.069C5.53511 26.0065 5.49999 25.9217 5.49999 25.8333V17.5333L14.9177 9.7768C14.9414 9.75812 14.9708 9.74795 15.001 9.74795C15.0313 9.74795 15.0606 9.75813 15.0844 9.77681C15.0848 9.77714 15.0853 9.77748 15.0857 9.77782L24.5 17.5277V25.8333C24.5 25.9217 24.4649 26.0065 24.4024 26.069C24.34 26.1314 24.2554 26.1665 24.1672 26.1667C24.167 26.1667 24.1668 26.1667 24.1667 26.1667L18.3337 26.1505H18.3323C18.2884 26.1505 18.245 26.1419 18.2045 26.125C18.164 26.1082 18.1272 26.0836 18.0962 26.0525C18.0652 26.0215 18.0407 25.9846 18.024 25.944C18.0073 25.9035 17.9988 25.86 17.9989 25.8162ZM29.4528 15.1499L29.4554 15.152C29.4682 15.1624 29.4788 15.1752 29.4866 15.1897L29.9268 14.9526L29.4866 15.1897C29.4944 15.2042 29.4992 15.2201 29.5009 15.2365C29.5025 15.2529 29.5009 15.2694 29.4962 15.2852C29.4914 15.301 29.4836 15.3156 29.4731 15.3284L28.1458 16.9419C28.1457 16.942 28.1456 16.9421 28.1456 16.9422C28.1351 16.9547 28.1224 16.9651 28.108 16.9727C28.0935 16.9804 28.0776 16.9851 28.0613 16.9867C28.0449 16.9882 28.0284 16.9865 28.0127 16.9817C27.997 16.9769 27.9825 16.969 27.9698 16.9585L27.9689 16.9578L15.7173 6.86718L15.7174 6.86716L15.7132 6.86384C15.5115 6.70122 15.2602 6.61254 15.001 6.61254C14.7419 6.61254 14.4906 6.70122 14.2888 6.86384L14.2888 6.86382L14.2847 6.86718L2.03367 16.9578L2.03314 16.9582C2.02047 16.9687 2.00586 16.9766 1.99014 16.9814C1.97442 16.9862 1.95791 16.9879 1.94155 16.9863L1.89358 17.484L1.94155 16.9863C1.92519 16.9847 1.9093 16.9799 1.89479 16.9722C1.88028 16.9645 1.86744 16.954 1.857 16.9413L1.85697 16.9412L0.528842 15.3266L0.527903 15.3255C0.517435 15.3128 0.509561 15.2983 0.504733 15.2826C0.499904 15.2669 0.498215 15.2504 0.499763 15.234C0.501311 15.2177 0.506065 15.2018 0.513752 15.1873C0.521408 15.1728 0.531822 15.16 0.544403 15.1496C0.544459 15.1496 0.544515 15.1495 0.54457 15.1495L13.7276 4.29233C13.7276 4.29229 13.7277 4.29225 13.7277 4.29221C14.0857 3.9977 14.5349 3.83667 14.9984 3.83667C15.462 3.83667 15.9113 3.99774 16.2693 4.29233L16.2693 4.29236L20.9323 8.12882L21.75 8.80156V7.74271V3.96094C21.75 3.92778 21.7632 3.89599 21.7866 3.87255C21.81 3.84911 21.8418 3.83594 21.875 3.83594H24.7917C24.8248 3.83594 24.8566 3.84911 24.88 3.87255C24.9035 3.89599 24.9167 3.92778 24.9167 3.96094V11.175V11.4108L25.0986 11.5608L29.4528 15.1499Z" stroke="black" stroke-opacity="0.37"/>
</g>
<defs>
<clipPath id="clip0_654_2408">
<rect width="30" height="30" fill="white"/>
</clipPath>
</defs>
</svg>
