<svg width="30" height="30" viewBox="0 0 30 30" fill="none" xmlns="http://www.w3.org/2000/svg">
<g clip-path="url(#clip0_654_687)">
<path d="M20.6152 18.7636L19.8027 19.8027L18.7636 20.6152C16.9503 22.0329 14.6718 22.875 12.1875 22.875C6.2835 22.875 1.5 18.0915 1.5 12.1875C1.5 6.2835 6.2835 1.5 12.1875 1.5C18.0915 1.5 22.875 6.2835 22.875 12.1875C22.875 14.6718 22.0329 16.9503 20.6152 18.7636ZM21.1875 21.7969V21.1875H21.7969H22.7166L28.4617 26.9326L26.9326 28.4617L21.1875 22.7166V21.7969ZM3.1875 12.1875C3.1875 17.1651 7.21726 21.1875 12.1875 21.1875C17.1651 21.1875 21.1875 17.1577 21.1875 12.1875C21.1875 7.20987 17.1577 3.1875 12.1875 3.1875C7.20987 3.1875 3.1875 7.21726 3.1875 12.1875Z" stroke="black" stroke-width="3"/>
</g>
<defs>
<clipPath id="clip0_654_687">
<rect width="30" height="30" fill="white"/>
</clipPath>
</defs>
</svg>
