<svg width="15" height="17" viewBox="0 0 15 17" fill="none" xmlns="http://www.w3.org/2000/svg">
<g clip-path="url(#clip0_654_805)">
<path d="M13.125 6.79613C13.125 11.5534 7.5 15.6311 7.5 15.6311C7.5 15.6311 1.875 11.5534 1.875 6.79613C1.875 5.17393 2.46763 3.61818 3.52252 2.47111C4.57742 1.32404 6.00816 0.679626 7.5 0.679626C8.99184 0.679626 10.4226 1.32404 11.4775 2.47111C12.5324 3.61818 13.125 5.17393 13.125 6.79613Z" stroke="black" stroke-opacity="0.6" stroke-width="2" stroke-linecap="round" stroke-linejoin="round"/>
<path d="M7.5 8.83496C8.53553 8.83496 9.375 7.92215 9.375 6.79613C9.375 5.67011 8.53553 4.75729 7.5 4.75729C6.46447 4.75729 5.625 5.67011 5.625 6.79613C5.625 7.92215 6.46447 8.83496 7.5 8.83496Z" stroke="black" stroke-opacity="0.6" stroke-width="2" stroke-linecap="round" stroke-linejoin="round"/>
</g>
<defs>
<clipPath id="clip0_654_805">
<rect width="15" height="16.3107" fill="white"/>
</clipPath>
</defs>
</svg>
