<svg width="20" height="20" viewBox="0 0 20 20" fill="none" xmlns="http://www.w3.org/2000/svg">
<path d="M15.8282 8.33321H4.16531C3.24513 8.33321 2.49918 9.0794 2.49918 9.99987V16.6665C2.49918 17.587 3.24513 18.3332 4.16531 18.3332H15.8282C16.7484 18.3332 17.4943 17.587 17.4943 16.6665V9.99987C17.4943 9.0794 16.7484 8.33321 15.8282 8.33321Z" stroke="black" stroke-opacity="0.45" stroke-width="2" stroke-linecap="round" stroke-linejoin="round"/>
<path d="M4.99836 4.99994C4.99836 4.3369 5.26167 3.70101 5.73036 3.23217C6.19905 2.76333 6.83472 2.49994 7.49755 2.49994H12.4959C13.1588 2.49994 13.7944 2.76333 14.2631 3.23217C14.7318 3.70101 14.9951 4.3369 14.9951 4.99994V8.33327H4.99836V4.99994Z" stroke="black" stroke-opacity="0.45" stroke-width="2" stroke-linecap="round" stroke-linejoin="round"/>
</svg>
