<svg width="22" height="18" viewBox="0 0 22 18" fill="none" xmlns="http://www.w3.org/2000/svg">
<g clip-path="url(#clip0_654_663)">
<path d="M18.9358 7.49984C18.9358 12.7498 10.8205 17.2498 10.8205 17.2498C10.8205 17.2498 2.70514 12.7498 2.70514 7.49984C2.70514 5.70964 3.56015 3.99276 5.08207 2.7269C6.60399 1.46103 8.66816 0.749877 10.8205 0.749877C12.9728 0.749877 15.037 1.46103 16.5589 2.7269C18.0808 3.99276 18.9358 5.70964 18.9358 7.49984Z" stroke="black" stroke-opacity="0.6" stroke-width="2" stroke-linecap="round" stroke-linejoin="round"/>
<path d="M10.8205 9.74985C12.3145 9.74985 13.5256 8.7425 13.5256 7.49987C13.5256 6.25723 12.3145 5.24988 10.8205 5.24988C9.32649 5.24988 8.11537 6.25723 8.11537 7.49987C8.11537 8.7425 9.32649 9.74985 10.8205 9.74985Z" stroke="black" stroke-opacity="0.6" stroke-width="2" stroke-linecap="round" stroke-linejoin="round"/>
</g>
<defs>
<clipPath id="clip0_654_663">
<rect width="21.5247" height="17.9032" fill="white" transform="scale(1.0054)"/>
</clipPath>
</defs>
</svg>
