<svg width="18" height="15" viewBox="0 0 18 15" fill="none" xmlns="http://www.w3.org/2000/svg">
<path d="M16.2 14.4047H1.8C1.32261 14.4047 0.864773 14.215 0.527208 13.8773C0.189642 13.5396 0 13.0816 0 12.6041V1.72226C0.0201894 1.25842 0.218708 0.820308 0.55411 0.499392C0.889513 0.178476 1.33587 -0.000438657 1.8 8.07669e-07H16.2C16.6774 8.07669e-07 17.1352 0.189704 17.4728 0.527379C17.8104 0.865054 18 1.32304 18 1.80058V12.6041C18 13.0816 17.8104 13.5396 17.4728 13.8773C17.1352 14.215 16.6774 14.4047 16.2 14.4047ZM1.8 3.48233V12.6041H16.2V3.48233L9 8.28268L1.8 3.48233ZM2.52 1.80058L9 6.12198L15.48 1.80058H2.52Z" fill="black" fill-opacity="0.45"/>
</svg>
